<?xml version="1.0" ?><!-- Uploaded to: SVG Repo, www.svgrepo.com, Generator: SVG Repo Mixer Tools -->
<svg width="800px" height="800px" viewBox="0 0 128 128" data-name="Layer 2" id="Layer_2" xmlns="http://www.w3.org/2000/svg"><defs><style>.cls-1{fill:#f77781;}.cls-2{fill:#fd8d92;}.cls-3{fill:#e8777f;}.cls-4{fill:#553f07;}.cls-5{fill:#f1edd8;}.cls-6{fill:#ea6a73;}.cls-7{fill:#ccebf7;}</style></defs><title/><path class="cls-1" d="M87.59,101.17H86.45a4,4,0,0,1-4-3.45,3.79,3.79,0,0,1,3.78-4.13h1.41a13.53,13.53,0,0,0,11.47-6.35l4.49-7.17a5.51,5.51,0,0,0,.84-2.93V69.36a5.62,5.62,0,0,0-4.49-5.63,5.44,5.44,0,0,0-5.23,2l-5.36,6.76a4,4,0,0,1-5.22,1A3.8,3.8,0,0,1,83.21,68l5.32-6.71A13.31,13.31,0,0,1,96,56.39,13.06,13.06,0,0,1,112,69.1v8.05a13.13,13.13,0,0,1-2,6.95l-4.49,7.16A21.13,21.13,0,0,1,87.59,101.17Z"/><path class="cls-2" d="M27,50H92.24a0,0,0,0,1,0,0v50.76a17.48,17.48,0,0,1-17.48,17.48H44.51A17.48,17.48,0,0,1,27,100.73V50A0,0,0,0,1,27,50Z"/><ellipse class="cls-3" cx="59.64" cy="49.97" rx="32.61" ry="13.36"/><ellipse class="cls-4" cx="59.64" cy="54.78" rx="30.4" ry="8.55"/><path class="cls-5" d="M77.91,49.74l-3.45-4a3.31,3.31,0,0,0-4.66-.33L62,52.27a3.31,3.31,0,0,0-1.12,2.78,36.69,36.69,0,0,0,15.73-.27h0a3.14,3.14,0,0,0,2.1-2.36A3.34,3.34,0,0,0,77.91,49.74Z"/><path class="cls-5" d="M45.15,55.29a70.21,70.21,0,0,0,10.3-.21,2,2,0,0,0,0-1.94l-4.19-7.25a2,2,0,0,0-2.73-.74l-5.2,3a2,2,0,0,0-.73,2.73Z"/><path class="cls-5" d="M77.48,98.2,75,96.71l1.51-.38A2.24,2.24,0,0,0,75.41,92l-5.82,1.46L64,90.07l5.86-3.53L75.78,88a2.08,2.08,0,0,0,.55.07,2.24,2.24,0,0,0,.54-4.42l-1.62-.4L77,82.21a2.24,2.24,0,0,0-2.31-3.84l-1.67,1L73.4,78a2.24,2.24,0,0,0-4.34-1.13l-1.52,5.85-5.8,3.5V79.63L66,75.4a2.24,2.24,0,1,0-3.16-3.18l-1.1,1.09v-2.9a2.25,2.25,0,0,0-4.49,0V73.2l-.93-1a2.25,2.25,0,1,0-3.21,3.14l4.14,4.23V86l-5.52-3.32-1.52-5.85A2.24,2.24,0,0,0,45.87,78l.37,1.41-1.67-1a2.24,2.24,0,0,0-2.32,3.84L44,83.28l-1.62.4A2.24,2.24,0,0,0,43,88.1,2.13,2.13,0,0,0,43.5,88l5.93-1.49,5.86,3.53-5.6,3.37L43.86,92a2.24,2.24,0,1,0-1.09,4.35l1.5.38L41.79,98.2A2.24,2.24,0,0,0,44.11,102l2.38-1.43-.34,1.29a2.25,2.25,0,0,0,1.61,2.74,2.78,2.78,0,0,0,.57.07A2.24,2.24,0,0,0,50.49,103L52,97.3l5.27-3.18v6.34l-4.34,4.31A2.24,2.24,0,0,0,56.07,108l1.18-1.17v2.06a2.25,2.25,0,0,0,4.49,0v-2l1,1A2.25,2.25,0,0,0,66,104.79l-4.22-4.31V94l5.55,3.35L68.78,103A2.24,2.24,0,0,0,71,104.71a2.68,2.68,0,0,0,.56-.07,2.25,2.25,0,0,0,1.61-2.74l-.34-1.29L75.17,102a2.2,2.2,0,0,0,1.15.32,2.24,2.24,0,0,0,1.16-4.16Z"/><path class="cls-6" d="M29.83,75a.75.75,0,0,1-.75-.76V61.15a.75.75,0,0,1,.75-.75.76.76,0,0,1,.76.75V74.26A.76.76,0,0,1,29.83,75Z"/><path class="cls-6" d="M29.83,81.35a.75.75,0,0,1-.75-.76V76.75a.75.75,0,0,1,.75-.76.76.76,0,0,1,.76.76v3.84A.76.76,0,0,1,29.83,81.35Z"/><path class="cls-6" d="M109.36,72.86a.76.76,0,0,0-.76.76v.58a17.47,17.47,0,0,1-2.26,8.59L103.41,88a.75.75,0,0,0,.29,1,.71.71,0,0,0,.37.1.76.76,0,0,0,.66-.39l2.94-5.2a19.07,19.07,0,0,0,2.45-9.34v-.58A.76.76,0,0,0,109.36,72.86Z"/><path class="cls-6" d="M108.6,69.45a.76.76,0,0,0,1.52,0,10.34,10.34,0,0,0-2.62-6.87l-.57.5h0l-.52.56A8.79,8.79,0,0,1,108.6,69.45Z"/><path class="cls-7" d="M45.93,34.05a.76.76,0,0,1-.76-.76,11.26,11.26,0,0,1,1.6-6,9.74,9.74,0,0,0,1.43-5.33,9.68,9.68,0,0,0-1.43-5.33,11.3,11.3,0,0,1-1.6-6.05.76.76,0,0,1,1.52,0,9.78,9.78,0,0,0,1.42,5.33,11.17,11.17,0,0,1,1.61,6.05,11.16,11.16,0,0,1-1.61,6,9.83,9.83,0,0,0-1.42,5.33A.76.76,0,0,1,45.93,34.05Z"/><path class="cls-7" d="M55,34.05a.76.76,0,0,1-.76-.76,11.17,11.17,0,0,1,1.6-6,9.74,9.74,0,0,0,1.43-5.33,9.68,9.68,0,0,0-1.43-5.33,11.21,11.21,0,0,1-1.6-6.05.76.76,0,1,1,1.52,0,9.78,9.78,0,0,0,1.42,5.33,11.17,11.17,0,0,1,1.61,6.05,11.16,11.16,0,0,1-1.61,6,9.83,9.83,0,0,0-1.42,5.33A.76.76,0,0,1,55,34.05Z"/><path class="cls-7" d="M64.13,34.05a.76.76,0,0,1-.76-.76,11.17,11.17,0,0,1,1.6-6,9.74,9.74,0,0,0,1.43-5.33A9.68,9.68,0,0,0,65,16.59a11.21,11.21,0,0,1-1.6-6.05.76.76,0,0,1,.76-.76.75.75,0,0,1,.75.76,9.77,9.77,0,0,0,1.43,5.33,11.17,11.17,0,0,1,1.61,6.05,11.16,11.16,0,0,1-1.61,6,9.82,9.82,0,0,0-1.43,5.33A.75.75,0,0,1,64.13,34.05Z"/><path class="cls-7" d="M73.23,34.05a.76.76,0,0,1-.76-.76,11.17,11.17,0,0,1,1.6-6,9.74,9.74,0,0,0,1.43-5.33,9.68,9.68,0,0,0-1.43-5.33,11.21,11.21,0,0,1-1.6-6.05.76.76,0,1,1,1.51,0,9.77,9.77,0,0,0,1.43,5.33A11.17,11.17,0,0,1,77,21.92a11.16,11.16,0,0,1-1.61,6A9.82,9.82,0,0,0,74,33.29.76.76,0,0,1,73.23,34.05Z"/></svg>