<?xml version="1.0" ?>
<!-- Uploaded to: SVG Repo, www.svgrepo.com, Generator: SVG Repo Mixer Tools -->
<svg width="800px" height="800px" viewBox="0 0 64 64" xmlns="http://www.w3.org/2000/svg">
<defs>
<style>.cls-1{fill:#603813;}.cls-2{fill:#c1272d;}.cls-3{fill:#d26266;}.cls-4{fill:#c7b299;}.cls-5{fill:#d2c1ad;}.cls-6{fill:#b9a58e;}.cls-7{fill:#8a490e;}.cls-8{fill:#a16d3e;}.cls-9{fill:#80440d;}.cls-10{fill:#8cc63f;}.cls-11{fill:#a3d165;}.cls-12{fill:#22b573;}.cls-13{fill:#4ec48f;}.cls-14{fill:#fccb7e;}.cls-15{fill:#fdd598;}</style>
</defs>
<title/>
<g data-name="Layer 25" id="Layer_25">
<path class="cls-1" d="M1,64a1,1,0,0,1-.707-1.707L60.307,2.28a1,1,0,0,1,1.414,1.414L1.707,63.707A1,1,0,0,1,1,64Z"/>
<path class="cls-2" d="M63.124,3.684,60.316.875a3.006,3.006,0,0,0-4.242,0L51.388,5.562a3,3,0,0,0,0,4.243L54.2,12.613h0a3,3,0,0,0,4.242,0l4.687-4.687a3,3,0,0,0,0-4.242Z"/>
<path class="cls-3" d="M63.124,3.684,60.316.875A3,3,0,0,0,57.2.18a2.959,2.959,0,0,1,1.121.7l2.808,2.809a3,3,0,0,1,0,4.242l-4.686,4.687a2.986,2.986,0,0,1-1.122.7,2.959,2.959,0,0,0,3.122-.7l4.686-4.687a3,3,0,0,0,0-4.242Z"/>
<path class="cls-4" d="M57.4,15.992,48.009,6.6a1,1,0,0,0-1.414,0l-6.576,6.575a1,1,0,0,0,0,1.414l9.393,9.394a1,1,0,0,0,1.414,0L57.4,17.406a1,1,0,0,0,0-1.414Z"/>
<path class="cls-5" d="M57.4,15.992,48.009,6.6a1,1,0,0,0-1.414,0l-.293.293,9.1,9.1a1,1,0,0,1,0,1.414l-6.283,6.282.293.293a1,1,0,0,0,1.414,0L57.4,17.406a1,1,0,0,0,0-1.414Z"/>
<line class="cls-6" x1="44.483" x2="46.362" y1="10.123" y2="12.002"/>
<path class="cls-6" d="M46.362,13a1,1,0,0,1-.707-.293L43.776,10.83A1,1,0,0,1,45.19,9.416L47.069,11.3A1,1,0,0,1,46.362,13Z"/>
<line class="cls-6" x1="51.059" x2="52.938" y1="18.577" y2="20.456"/>
<path class="cls-6" d="M52.937,21.456a1,1,0,0,1-.707-.293l-1.878-1.878a1,1,0,0,1,1.414-1.414l1.879,1.878a1,1,0,0,1-.708,1.707Z"/>
<path class="cls-7" d="M43.562,29.827l-9.395-9.394a1.029,1.029,0,0,0-1.414,0l-6.575,6.576a1,1,0,0,0,0,1.414l9.393,9.393a1,1,0,0,0,1.414,0l6.577-6.575a1,1,0,0,0,0-1.414Z"/>
<path class="cls-8" d="M43.562,29.722l-9.395-9.394a1.029,1.029,0,0,0-1.414,0l-.293.293,9.1,9.1a1,1,0,0,1,0,1.414l-6.284,6.283.293.293a1,1,0,0,0,1.414,0l6.577-6.576a1,1,0,0,0,0-1.414Z"/>
<line class="cls-9" x1="30.642" x2="32.521" y1="23.958" y2="25.837"/>
<path class="cls-9" d="M32.521,26.837a1,1,0,0,1-.707-.293l-1.879-1.879a1,1,0,1,1,1.415-1.414l1.878,1.879a1,1,0,0,1-.707,1.707Z"/>
<line class="cls-9" x1="37.218" x2="39.097" y1="32.413" y2="34.291"/>
<path class="cls-9" d="M39.1,35.292A1,1,0,0,1,38.39,35L36.511,33.12a1,1,0,0,1,1.414-1.414L39.8,33.584a1,1,0,0,1-.707,1.708Z"/>
<path class="cls-10" d="M51.645,25.509l-3.289-3.288a1.029,1.029,0,0,0-1.414,0,3.74,3.74,0,0,1-5.161,0,3.654,3.654,0,0,1,0-5.161,1,1,0,0,0,0-1.414l-3.288-3.288a1,1,0,0,0-1.414,0A10.3,10.3,0,0,0,51.645,26.923,1,1,0,0,0,51.645,25.509Z"/>
<path class="cls-11" d="M51.645,25.509l-3.289-3.288a1.029,1.029,0,0,0-1.414,0,3.118,3.118,0,0,1-.324.262l3.027,3.026a1,1,0,0,1,0,1.414,10.251,10.251,0,0,1-6.283,2.963c.332.032.666.049,1,.049a10.269,10.269,0,0,0,7.284-3.012A1,1,0,0,0,51.645,25.509Z"/>
<path class="cls-12" d="M30.64,48.384,15.61,33.354a1,1,0,0,0-1.414,0l-3.758,3.757a1,1,0,0,0,0,1.414L25.469,53.556a1,1,0,0,0,1.414,0L30.64,49.8A1,1,0,0,0,30.64,48.384Z"/>
<path class="cls-13" d="M30.64,48.384,15.61,33.354a1,1,0,0,0-1.414,0l-.293.292L28.64,48.384a1,1,0,0,1,0,1.414l-3.464,3.465.293.293a1,1,0,0,0,1.414,0L30.64,49.8A1,1,0,0,0,30.64,48.384Z"/>
<path class="cls-14" d="M30.311,32.684H17.159a1,1,0,0,0-.707,1.707L29.6,47.542a1,1,0,0,0,1.707-.707V33.684A1,1,0,0,0,30.311,32.684Z"/>
<path class="cls-15" d="M30.311,32.684H17.159A.991.991,0,0,0,16.44,33H28a1,1,0,0,1,1,1V46.938l.6.6a1,1,0,0,0,1.707-.707V33.684A1,1,0,0,0,30.311,32.684Z"/>
</g>
</svg>